
<svg version="1.0" xmlns="http://www.w3.org/2000/svg"
 width="640.000000pt" height="1280.000000pt" viewBox="0 0 640.000000 1280.000000"
 preserveAspectRatio="xMidYMid meet">

<g transform="translate(0.000000,1280.000000) scale(0.100000,-0.100000)"
fill="#ff5722" stroke="none">
<path d="M4780 12433 c-56 -169 -211 -639 -345 -1043 -307 -926 -541 -1638
-1055 -3200 -138 -421 -260 -790 -270 -820 -33 -98 -478 -1454 -484 -1475 -3
-11 -7 -24 -8 -28 -2 -4 169 -8 380 -7 363 0 383 -1 378 -17 -8 -31 -1071
-3933 -1155 -4243 -44 -162 -139 -513 -211 -780 -72 -267 -133 -491 -135 -497
-2 -7 -1 -13 3 -13 4 1 66 141 139 313 73 172 207 488 299 702 91 215 237 557
324 760 87 204 231 541 320 750 89 209 292 684 450 1055 158 371 360 845 449
1053 89 207 233 547 322 755 89 207 196 459 239 560 l78 182 -439 0 c-241 0
-439 3 -439 6 0 4 12 63 26 133 14 69 70 347 124 616 55 270 140 693 190 940
50 248 131 648 180 890 49 242 170 843 270 1335 99 492 221 1093 270 1335 49
242 116 575 149 739 34 165 59 301 57 303 -2 3 -50 -134 -106 -304z"/>
</g>
</svg>
